<svg xmlns="http://www.w3.org/2000/svg" viewBox="0 0 1200 630">
  <rect width="1200" height="630" fill="#101b2d"/>
  <circle cx="1050" cy="90" r="330" fill="#9cd6b8" opacity=".08"/>
  <circle cx="1010" cy="590" r="270" fill="#c9c4f5" opacity=".08"/>
  <g transform="translate(76 68)">
    <path d="M11 8c8 0 14 6 14 14s-6 14-14 14M33 8c-8 0-14 6-14 14s6 14 14 14" fill="none" stroke="#f6f2e9" stroke-width="1.8" stroke-linecap="round"/>
    <circle cx="11" cy="8" r="3" fill="#ff6b57"/>
    <circle cx="33" cy="36" r="3" fill="#ff6b57"/>
    <text x="58" y="31" fill="#f6f2e9" font-family="Arial, sans-serif" font-size="27" font-weight="700">Jouvence</text>
  </g>
  <text x="76" y="244" fill="#f6f2e9" font-family="Georgia, serif" font-size="88">Prevent</text>
  <text x="360" y="244" fill="#ff6b57" font-family="Georgia, serif" font-size="88" font-style="italic">1 in 3</text>
  <text x="76" y="336" fill="#f6f2e9" font-family="Georgia, serif" font-size="88">diseases.</text>
  <text x="80" y="428" fill="#9cd6b8" font-family="Georgia, serif" font-size="42" font-style="italic">Know before you pass it on.</text>
  <line x1="76" y1="518" x2="1124" y2="518" stroke="#f6f2e9" opacity=".16"/>
  <text x="76" y="565" fill="#f6f2e9" opacity=".62" font-family="Arial, sans-serif" font-size="18" letter-spacing="2">REPRODUCTIVE GENOMICS · JOUVENCE.TECH</text>
  <g transform="translate(1005 256) scale(3.2)">
    <path d="M11 8c8 0 14 6 14 14s-6 14-14 14M33 8c-8 0-14 6-14 14s6 14 14 14" fill="none" stroke="#f6f2e9" stroke-width="1" opacity=".18"/>
    <circle cx="11" cy="8" r="2.5" fill="#ff6b57" opacity=".8"/>
    <circle cx="33" cy="36" r="2.5" fill="#ff6b57" opacity=".8"/>
  </g>
</svg>
